<svg width="118" height="32" viewBox="0 0 118 32" fill="none" xmlns="http://www.w3.org/2000/svg">
<path d="M76.8114 23.9693V7.14931H81.0929V23.9693H76.8114Z" fill="#37E6E9"/>
<path d="M78.9521 5.45773C78.157 5.45773 77.5148 5.21304 77.0255 4.72365C76.5362 4.21299 76.2915 3.56402 76.2915 2.77674C76.2915 1.94691 76.5464 1.27666 77.0561 0.765997C77.5658 0.255332 78.208 0 78.9827 0C79.6963 0 80.308 0.255332 80.8177 0.765997C81.3477 1.25538 81.6128 1.91499 81.6128 2.74482C81.6128 3.55338 81.3579 4.21299 80.8482 4.72365C80.3589 5.21304 79.7269 5.45773 78.9521 5.45773Z" fill="#37E6E9"/>
<path d="M84.4868 7.14945V23.9695H88.7682V15.6712C88.7682 14.7988 88.9008 14.0009 89.1658 13.2774C89.4309 12.554 89.8386 11.9795 90.3891 11.5539C90.9396 11.1284 91.6226 10.9156 92.4381 10.9156C93.0701 10.9156 93.5798 11.0433 93.9672 11.2986C94.3546 11.5539 94.6502 11.8944 94.854 12.3199C95.0783 12.7455 95.2313 13.2136 95.3128 13.7243C95.3944 14.2349 95.4351 14.7456 95.4351 15.2563V23.9695H99.7166V14.6818C99.7166 13.2349 99.5229 11.9263 99.1356 10.756C98.7686 9.56447 98.1467 8.61761 97.27 7.91545C96.4137 7.21328 95.2109 6.8622 93.6614 6.8622C93.1721 6.8622 92.6216 6.92603 92.0099 7.0537C91.4187 7.18136 90.8274 7.41542 90.2362 7.75586C89.6653 8.07503 89.1556 8.52186 88.7071 9.09636L88.493 7.14945H84.4868Z" fill="#37E6E9"/>
<path fill-rule="evenodd" clip-rule="evenodd" d="M106.061 23.1396C107.243 23.8418 108.681 24.1929 110.373 24.1929C111.494 24.1929 112.565 24.012 113.584 23.6503C114.604 23.2673 115.47 22.6715 116.184 21.863C116.918 21.0544 117.417 20.0225 117.682 18.7671H113.462C113.34 19.1075 113.125 19.4054 112.82 19.6607C112.514 19.9161 112.147 20.1076 111.719 20.2352C111.291 20.3416 110.822 20.3948 110.312 20.3948C109.537 20.3948 108.885 20.2459 108.355 19.948C107.845 19.6288 107.447 19.2033 107.162 18.6713C106.877 18.1394 106.703 17.5542 106.642 16.9159H117.682C117.743 16.6393 117.784 16.3627 117.804 16.0861C117.825 15.8095 117.835 15.5222 117.835 15.2243C117.855 14.0541 117.703 12.9689 117.376 11.9688C117.071 10.9475 116.591 10.0539 115.939 9.28786C115.307 8.52186 114.522 7.92609 113.584 7.50053C112.667 7.07498 111.596 6.8622 110.373 6.8622C108.742 6.8622 107.325 7.23456 106.122 7.97928C104.94 8.724 104.022 9.75597 103.37 11.0752C102.717 12.3731 102.391 13.8945 102.391 15.6393C102.391 17.3627 102.707 18.8735 103.339 20.1714C103.971 21.4481 104.878 22.4375 106.061 23.1396ZM113.737 13.7881H106.734C106.775 13.2349 106.917 12.7136 107.162 12.2242C107.427 11.7135 107.814 11.2986 108.324 10.9794C108.854 10.6603 109.507 10.5007 110.281 10.5007C111.056 10.5007 111.688 10.6603 112.177 10.9794C112.687 11.2773 113.064 11.6816 113.309 12.1923C113.574 12.6817 113.717 13.2136 113.737 13.7881Z" fill="#37E6E9"/>
<path d="M45.9721 31.7503C44.7284 31.7503 43.5153 31.5801 42.3328 31.2397C41.1503 30.8992 40.0391 30.3247 38.9994 29.5162L40.4367 25.9415C41.0891 26.4522 41.8333 26.8565 42.6692 27.1544C43.5051 27.4735 44.4328 27.6331 45.4522 27.6331C47.022 27.6331 48.1841 27.2501 48.9385 26.4841C49.7132 25.7181 50.1006 24.6117 50.1006 23.1648V22.2711C49.754 22.7605 49.3157 23.1542 48.7856 23.452C48.2759 23.7287 47.7254 23.9308 47.1342 24.0585C46.5429 24.1861 45.9517 24.25 45.3604 24.25C43.8109 24.25 42.5673 23.9095 41.6294 23.2286C40.6916 22.5477 40.0086 21.6222 39.5804 20.4519C39.1727 19.2603 38.9688 17.9092 38.9688 16.3985V7.1746H43.2503V15.4729C43.2503 16.0261 43.2808 16.5793 43.342 17.1326C43.4032 17.6858 43.5459 18.1964 43.7701 18.6646C43.9944 19.1327 44.3308 19.5157 44.7794 19.8136C45.2279 20.0902 45.8293 20.2285 46.5837 20.2285C47.5623 20.2285 48.2963 19.9838 48.7856 19.4944C49.2749 18.9837 49.6011 18.3454 49.7642 17.5794C49.9477 16.8134 50.0395 16.0155 50.0395 15.1857V7.1746H54.3209V21.569C54.3209 23.101 54.1782 24.4947 53.8928 25.75C53.6277 27.0054 53.169 28.0799 52.5166 28.9736C51.8846 29.8673 51.0283 30.5482 49.9477 31.0163C48.8875 31.5056 47.5623 31.7503 45.9721 31.7503Z" fill="#37E6E9"/>
<path fill-rule="evenodd" clip-rule="evenodd" d="M73.4491 7.17125C73.4491 12.0673 73.4491 16.9633 73.4491 21.8593C73.4291 23.2561 73.2818 24.5334 73.0174 25.6938C72.7517 26.9492 72.2919 28.0237 71.638 28.9174C71.0045 29.811 70.1462 30.4919 69.0631 30.96C68.0004 31.4494 66.6721 31.6941 65.0782 31.6941C63.8316 31.6941 62.6157 31.5239 61.4304 31.1834C60.2452 30.843 59.1314 30.2685 58.0892 29.4599L59.5299 25.8853C60.1839 26.396 60.9297 26.8002 61.7676 27.0981C62.6055 27.4173 63.5353 27.5769 64.5571 27.5769C66.1306 27.5769 67.3566 27.2514 68.0515 26.4279C68.8597 25.47 69.03 24.4519 69.0769 23.1816C69.0943 22.7092 69.0824 22.3716 69.1065 21.9167C68.7395 22.5338 68.2807 23.0019 67.7303 23.321C67.1798 23.6402 66.5987 23.8636 65.9871 23.9913C65.3958 24.1402 64.825 24.2147 64.2745 24.2147C62.5823 24.2147 61.2061 23.8211 60.1459 23.0338C59.0858 22.2465 58.311 21.2145 57.8217 19.9379C57.3324 18.6399 57.0877 17.2462 57.0877 15.7568C57.0877 14.1184 57.363 12.629 57.9134 11.2885C58.4639 9.94799 59.2896 8.88411 60.3906 8.09683C61.4915 7.30956 62.8677 6.91592 64.5192 6.91592C65.5182 6.91592 66.405 7.08614 67.1798 7.42658C67.9545 7.74575 68.6171 8.2245 69.1676 8.86283L69.5346 7.17125H73.4491ZM65.2225 20.1932C66.1196 20.1932 66.8536 19.9804 67.4245 19.5549C68.0157 19.1293 68.454 18.5655 68.7395 17.8633C69.0249 17.1399 69.1676 16.3632 69.1676 15.5334C69.1676 14.661 69.0249 13.8844 68.7395 13.2035C68.454 12.5013 68.0259 11.9481 67.455 11.5438C66.8842 11.1183 66.1502 10.9055 65.2531 10.9055C64.2745 10.9055 63.4998 11.1502 62.9289 11.6396C62.358 12.1077 61.9503 12.7035 61.7056 13.4269C61.4813 14.1291 61.3692 14.8738 61.3692 15.6611C61.3692 16.4696 61.4915 17.225 61.7362 17.9271C61.9808 18.608 62.3886 19.1612 62.9595 19.5868C63.5303 19.9911 64.2847 20.1932 65.2225 20.1932Z" fill="#37E6E9"/>
<path d="M35.6418 23.9704V7.16792H31.7273L31.3603 8.8595C30.8098 8.22117 30.1472 7.74242 29.3725 7.42325C28.5977 7.08281 27.7108 6.91259 26.7118 6.91259C25.0604 6.91259 23.6842 7.30623 22.5833 8.0935C21.4823 8.88078 20.6566 9.94466 20.1061 11.2852C19.8028 12.0238 19.5831 12.8076 19.4469 13.6367H23.834C23.8543 13.5652 23.8757 13.4942 23.8983 13.4236C24.1429 12.7001 24.5507 12.1044 25.1216 11.6362C25.6924 11.1469 26.4672 10.9022 27.4458 10.9022C28.3429 10.9022 29.0768 11.1149 29.6477 11.5405C30.2186 11.9448 30.6467 12.498 30.9321 13.2002C31.2176 13.881 31.3603 14.6577 31.3603 15.5301C31.3603 16.3599 31.2176 17.1365 30.9321 17.86C30.6467 18.5621 30.2084 19.126 29.6171 19.5515C29.0463 19.9771 28.3123 20.1899 27.4152 20.1899C26.4774 20.1899 25.723 19.9877 25.1521 19.5835C24.5813 19.1579 24.1735 18.6047 23.9289 17.9238C23.847 17.6888 23.7788 17.4478 23.7243 17.2008H19.3608C19.4691 18.1549 19.687 19.0662 20.0144 19.9345C20.5037 21.2112 21.2784 22.2432 22.3386 23.0305C23.3988 23.8177 24.775 24.2114 26.4672 24.2114C27.0176 24.2114 27.5885 24.1369 28.1798 23.9879C28.7914 23.8603 29.3725 23.6369 29.9229 23.3177C30.4734 22.9985 30.9321 22.5304 31.2991 21.9134C31.3793 22.3005 31.6525 23.9704 31.6525 23.9704H35.6418Z" fill="#37E6E9"/>
<path d="M0 7.17019V30.2778H4.28148V22.2986C4.60769 22.6604 5.00525 22.9902 5.47417 23.288C5.9431 23.5647 6.48338 23.7881 7.09502 23.9583C7.70666 24.1285 8.35908 24.2136 9.05227 24.2136C10.6629 24.2136 12.0085 23.8413 13.0891 23.0966C14.1697 22.3306 14.975 21.2986 15.5051 20.0006C15.8642 19.1399 16.1062 18.2068 16.231 17.2012H11.9132C11.8664 17.4128 11.8099 17.6225 11.7435 17.8303C11.5192 18.5112 11.1318 19.0751 10.5814 19.5219C10.0309 19.9687 9.27653 20.1921 8.3183 20.1921C7.40084 20.1921 6.63629 19.9794 6.02465 19.5538C5.4334 19.1283 4.98486 18.5644 4.67904 17.8622C4.39361 17.1601 4.2509 16.4047 4.2509 15.5962C4.2509 14.7876 4.4038 14.0322 4.70962 13.3301C5.01544 12.6279 5.46398 12.0641 6.05523 11.6385C6.64648 11.1917 7.37026 10.9683 8.22655 10.9683C9.18479 10.9683 9.93914 11.1917 10.4896 11.6385C11.0605 12.0641 11.4682 12.6386 11.7129 13.362C11.7435 13.4525 11.7722 13.5436 11.799 13.6354H16.1988C16.0708 12.7542 15.8498 11.9289 15.5356 11.1598C15.0259 9.84054 14.2512 8.79793 13.2114 8.03193C12.1716 7.26594 10.8566 6.88294 9.26634 6.88294C8.24694 6.88294 7.30909 7.07444 6.4528 7.45743C5.61689 7.84043 4.87273 8.44685 4.22031 9.27668L4.00624 7.17019H0Z" fill="#37E6E9"/>
</svg>
